<svg xmlns="http://www.w3.org/2000/svg" width="1080" height="1440" viewBox="0 0 1080 1440">
  <defs>
    <linearGradient id="bg" x1="0" y1="0" x2="1" y2="1">
      <stop offset="0" stop-color="#F8E9EF"/>
      <stop offset="0.52" stop-color="#F6F2E9"/>
      <stop offset="1" stop-color="#E8EEFA"/>
    </linearGradient>
    <linearGradient id="tape" x1="0" y1="0" x2="1" y2="0">
      <stop offset="0" stop-color="#FF6E9A"/>
      <stop offset="1" stop-color="#7AA7FF"/>
    </linearGradient>
    <filter id="shadow" x="-20%" y="-20%" width="140%" height="150%">
      <feDropShadow dx="0" dy="22" stdDeviation="28" flood-color="#6A5A5A" flood-opacity="0.16"/>
    </filter>
  </defs>

  <rect width="1080" height="1440" fill="url(#bg)"/>
  <circle cx="87" cy="92" r="8" fill="#FF6E9A"/>
  <text x="116" y="108" font-family="Hiragino Sans GB, Heiti SC, sans-serif" font-size="42" font-weight="600" fill="#24304A">OPENBILICLAW NOTES</text>
  <text x="830" y="108" font-family="Arial, sans-serif" font-size="30" font-weight="700" fill="#667189" letter-spacing="1">JUL 2026</text>

  <g filter="url(#shadow)">
    <rect x="58" y="166" width="964" height="1134" rx="52" fill="#FFFDFC"/>
  </g>
  <rect x="402" y="138" width="276" height="58" rx="12" fill="url(#tape)" opacity="0.86" transform="rotate(-2 540 167)"/>

  <g stroke="#E9E2DF" stroke-width="2">
    <line x1="132" y1="330" x2="948" y2="330"/>
    <line x1="132" y1="510" x2="948" y2="510"/>
    <line x1="132" y1="690" x2="948" y2="690"/>
    <line x1="132" y1="870" x2="948" y2="870"/>
    <line x1="132" y1="1050" x2="948" y2="1050"/>
  </g>

  <text x="132" y="432" font-family="Hiragino Sans GB, Heiti SC, sans-serif" font-size="86" font-weight="600" fill="#171A22">我越来越觉得</text>
  <text x="132" y="612" font-family="Hiragino Sans GB, Heiti SC, sans-serif" font-size="86" font-weight="600" fill="#171A22">更好的内容推荐</text>
  <text x="132" y="792" font-family="Hiragino Sans GB, Heiti SC, sans-serif" font-size="86" font-weight="600" fill="#171A22">应该来自一个</text>

  <rect x="112" y="880" width="760" height="112" rx="24" fill="#FFE56F" opacity="0.92" transform="rotate(-1.4 492 936)"/>
  <text x="132" y="972" font-family="Hiragino Sans GB, Heiti SC, sans-serif" font-size="82" font-weight="700" fill="#171A22">真正懂你的 Agent</text>

  <text x="132" y="1112" font-family="Hiragino Sans GB, Heiti SC, sans-serif" font-size="26" font-weight="400" fill="#687188">理解你的显性偏好、真正需求，也发现你还不知道自己会喜欢的。</text>

  <rect x="132" y="1170" width="404" height="78" rx="39" fill="#171A22"/>
  <text x="180" y="1222" font-family="Arial, Hiragino Sans GB, sans-serif" font-size="36" font-weight="700" fill="#FFFFFF">GitHub 1400+ ★</text>
  <text x="572" y="1222" font-family="Arial, Hiragino Sans GB, sans-serif" font-size="28" font-weight="700" fill="#667189" letter-spacing="0.5">OpenBiliClaw</text>

  <text x="540" y="1372" text-anchor="middle" font-family="Hiragino Sans GB, Heiti SC, sans-serif" font-size="24" fill="#7D8494">LOCAL-FIRST · OPEN SOURCE · PERSONAL AGENT</text>
</svg>
