<svg xmlns="http://www.w3.org/2000/svg" width="1080" height="1440" viewBox="0 0 1080 1440">
  <defs>
    <linearGradient id="bg" x1="0" y1="0" x2="1" y2="1"><stop offset="0" stop-color="#F8E9EF"/><stop offset="0.52" stop-color="#F6F2E9"/><stop offset="1" stop-color="#E8EEFA"/></linearGradient>
    <linearGradient id="tape" x1="0" y1="0" x2="1" y2="0"><stop offset="0" stop-color="#FF6E9A"/><stop offset="1" stop-color="#7AA7FF"/></linearGradient>
    <filter id="shadow" x="-20%" y="-20%" width="140%" height="150%"><feDropShadow dx="0" dy="22" stdDeviation="28" flood-color="#6A5A5A" flood-opacity="0.16"/></filter>
  </defs>
  <rect width="1080" height="1440" fill="url(#bg)"/>
  <circle cx="87" cy="92" r="8" fill="#FF6E9A"/>
  <text x="116" y="108" font-family="Arial, Hiragino Sans GB, sans-serif" font-size="38" font-weight="700" fill="#24304A">OPENBILICLAW · PRODUCT</text>
  <text x="854" y="108" font-family="Arial, sans-serif" font-size="30" font-weight="700" fill="#667189">05 / 11</text>
  <g filter="url(#shadow)"><rect x="58" y="166" width="964" height="1134" rx="52" fill="#FFFDFC"/></g>
  <rect x="402" y="138" width="276" height="58" rx="12" fill="url(#tape)" opacity="0.86" transform="rotate(-2 540 167)"/>

  <text x="120" y="310" font-family="Hiragino Sans GB, Heiti SC, sans-serif" font-size="61" font-weight="650" fill="#171A22">先把散落在各平台的</text>
  <rect x="103" y="335" width="548" height="88" rx="20" fill="#FFE56F" opacity="0.92" transform="rotate(-1 377 379)"/>
  <text x="120" y="406" font-family="Hiragino Sans GB, Heiti SC, sans-serif" font-size="61" font-weight="700" fill="#171A22">使用信号接回本机</text>

  <rect x="110" y="468" width="860" height="540" rx="28" fill="#F2EFEA" stroke="#E6DEDA" stroke-width="2"/>
  <text x="540" y="752" text-anchor="middle" font-family="Arial, sans-serif" font-size="26" fill="#A0A7B2">REAL PRODUCT UI</text>

  <rect x="132" y="1054" width="256" height="72" rx="36" fill="#171A22"/>
  <text x="181" y="1102" font-family="Hiragino Sans GB, Heiti SC, sans-serif" font-size="30" font-weight="700" fill="#FFFFFF">明确授权</text>
  <text x="424" y="1102" font-family="Hiragino Sans GB, Heiti SC, sans-serif" font-size="27" font-weight="600" fill="#667189">来源可开关，接入状态看得见</text>
  <text x="132" y="1182" font-family="Hiragino Sans GB, Heiti SC, sans-serif" font-size="27" fill="#687188">浏览、收藏、关注和反馈，统一进入本地记忆。</text>
  <text x="540" y="1372" text-anchor="middle" font-family="Arial, Hiragino Sans GB, sans-serif" font-size="22" fill="#7D8494">BILIBILI · 小红书 · 抖音 · YOUTUBE · X · 知乎 · REDDIT · BANGUMI · WEB</text>
</svg>
